<svg width="69" height="69" viewBox="0 0 69 69" fill="none" xmlns="http://www.w3.org/2000/svg">
<g filter="url(#filter0_d_277_32)">
<circle cx="31.5" cy="32.5" r="19.5" fill="white"/>
<path d="M31.5 23C28.9219 23 28.5978 23.0119 27.5848 23.057C26.5719 23.1045 25.8819 23.2636 25.2775 23.4987C24.6432 23.7366 24.0688 24.1108 23.5948 24.5948C23.1108 25.0688 22.7366 25.6432 22.4987 26.2775C22.2636 26.8808 22.1033 27.5719 22.057 28.5812C22.0119 29.5966 22 29.9196 22 32.5012C22 35.0804 22.0119 35.4034 22.057 36.4164C22.1045 37.4281 22.2636 38.1181 22.4987 38.7225C22.7422 39.3471 23.0664 39.8767 23.5948 40.4052C24.1221 40.9336 24.6517 41.259 25.2763 41.5012C25.8819 41.7364 26.5707 41.8967 27.5824 41.943C28.5966 41.9881 28.9196 42 31.5 42C34.0804 42 34.4023 41.9881 35.4164 41.943C36.4269 41.8955 37.1193 41.7364 37.7237 41.5012C38.3576 41.2632 38.9316 40.8891 39.4052 40.4052C39.9336 39.8767 40.2578 39.3471 40.5012 38.7225C40.7352 38.1181 40.8955 37.4281 40.943 36.4164C40.9881 35.4034 41 35.0804 41 32.5C41 29.9196 40.9881 29.5966 40.943 28.5824C40.8955 27.5719 40.7352 26.8808 40.5012 26.2775C40.2634 25.6432 39.8892 25.0688 39.4052 24.5948C38.9312 24.1108 38.3568 23.7366 37.7225 23.4987C37.1169 23.2636 36.4257 23.1033 35.4152 23.057C34.4011 23.0119 34.0793 23 31.4976 23H31.5ZM30.6486 24.7124H31.5012C34.0377 24.7124 34.3381 24.7207 35.3392 24.767C36.2654 24.8086 36.7689 24.9641 37.1038 25.0936C37.5467 25.2658 37.8638 25.4724 38.1963 25.8049C38.5288 26.1374 38.7343 26.4533 38.9064 26.8974C39.0371 27.2311 39.1914 27.7346 39.233 28.6608C39.2793 29.6619 39.2888 29.9623 39.2888 32.4976C39.2888 35.0329 39.2793 35.3346 39.233 36.3356C39.1914 37.2619 39.0359 37.7642 38.9064 38.0991C38.7531 38.511 38.5101 38.8838 38.1951 39.1904C37.8626 39.5229 37.5468 39.7283 37.1026 39.9005C36.7701 40.0311 36.2666 40.1855 35.3392 40.2283C34.3381 40.2734 34.0377 40.2841 31.5012 40.2841C28.9647 40.2841 28.6631 40.2734 27.662 40.2283C26.7358 40.1855 26.2334 40.0311 25.8986 39.9005C25.4863 39.7476 25.1131 39.5051 24.8061 39.1904C24.4905 38.8835 24.2471 38.5104 24.0936 38.0979C23.9641 37.7642 23.8086 37.2607 23.767 36.3344C23.7219 35.3334 23.7124 35.0329 23.7124 32.4952C23.7124 29.9576 23.7219 29.6595 23.767 28.6584C23.8098 27.7322 23.9641 27.2287 24.0948 26.8938C24.2669 26.4509 24.4736 26.1338 24.8061 25.8013C25.1386 25.4688 25.4544 25.2634 25.8986 25.0912C26.2334 24.9606 26.7358 24.8062 27.662 24.7634C28.5384 24.7231 28.878 24.7112 30.6486 24.71V24.7124ZM36.5718 26.2894C36.4221 26.2894 36.2739 26.3189 36.1356 26.3762C35.9972 26.4334 35.8716 26.5174 35.7657 26.6233C35.6599 26.7291 35.5759 26.8548 35.5186 26.9931C35.4613 27.1314 35.4318 27.2797 35.4318 27.4294C35.4318 27.5791 35.4613 27.7273 35.5186 27.8656C35.5759 28.0039 35.6599 28.1296 35.7657 28.2355C35.8716 28.3413 35.9972 28.4253 36.1356 28.4826C36.2739 28.5399 36.4221 28.5694 36.5718 28.5694C36.8742 28.5694 37.1641 28.4493 37.3779 28.2355C37.5917 28.0217 37.7118 27.7317 37.7118 27.4294C37.7118 27.127 37.5917 26.8371 37.3779 26.6233C37.1641 26.4095 36.8742 26.2894 36.5718 26.2894ZM31.5012 27.6217C30.8541 27.6117 30.2114 27.7304 29.6107 27.971C29.0099 28.2117 28.463 28.5695 28.0018 29.0235C27.5406 29.4775 27.1744 30.0188 26.9244 30.6157C26.6744 31.2127 26.5456 31.8534 26.5456 32.5006C26.5456 33.1478 26.6744 33.7885 26.9244 34.3854C27.1744 34.9824 27.5406 35.5236 28.0018 35.9777C28.463 36.4317 29.0099 36.7895 29.6107 37.0301C30.2114 37.2708 30.8541 37.3895 31.5012 37.3794C32.782 37.3595 34.0035 36.8366 34.9022 35.9239C35.8008 35.0111 36.3045 33.7815 36.3045 32.5006C36.3045 31.2197 35.8008 29.9901 34.9022 29.0773C34.0035 28.1645 32.782 27.6417 31.5012 27.6217ZM31.5012 29.3329C31.9171 29.3329 32.3289 29.4149 32.7132 29.574C33.0974 29.7332 33.4466 29.9665 33.7406 30.2605C34.0347 30.5546 34.268 30.9038 34.4272 31.288C34.5863 31.6723 34.6683 32.0841 34.6683 32.5C34.6683 32.9159 34.5863 33.3277 34.4272 33.712C34.268 34.0962 34.0347 34.4454 33.7406 34.7395C33.4466 35.0335 33.0974 35.2668 32.7132 35.426C32.3289 35.5851 31.9171 35.6671 31.5012 35.6671C30.6612 35.6671 29.8557 35.3334 29.2617 34.7395C28.6678 34.1455 28.3341 33.34 28.3341 32.5C28.3341 31.66 28.6678 30.8545 29.2617 30.2605C29.8557 29.6666 30.6612 29.3329 31.5012 29.3329Z" fill="black"/>
</g>
<defs>
<filter id="filter0_d_277_32" x="0" y="0" width="69" height="69" filterUnits="userSpaceOnUse" color-interpolation-filters="sRGB">
<feFlood flood-opacity="0" result="BackgroundImageFix"/>
<feColorMatrix in="SourceAlpha" type="matrix" values="0 0 0 0 0 0 0 0 0 0 0 0 0 0 0 0 0 0 127 0" result="hardAlpha"/>
<feOffset dx="3" dy="2"/>
<feGaussianBlur stdDeviation="7.5"/>
<feComposite in2="hardAlpha" operator="out"/>
<feColorMatrix type="matrix" values="0 0 0 0 0 0 0 0 0 0 0 0 0 0 0 0 0 0 0.25 0"/>
<feBlend mode="normal" in2="BackgroundImageFix" result="effect1_dropShadow_277_32"/>
<feBlend mode="normal" in="SourceGraphic" in2="effect1_dropShadow_277_32" result="shape"/>
</filter>
</defs>
</svg>
